<svg xmlns="http://www.w3.org/2000/svg" xmlns:xlink="http://www.w3.org/1999/xlink" width="500" zoomAndPan="magnify" viewBox="0 0 375 374.999991" height="500" preserveAspectRatio="xMidYMid meet" version="1.0"><defs><clipPath id="2b64d1e724"><path d="M 0 88 L 375 88 L 375 287.15625 L 0 287.15625 Z M 0 88 " clip-rule="nonzero"/></clipPath></defs><g clip-path="url(#2b64d1e724)"><path fill="#ffffff" d="M 105.726562 182.621094 C 96.320312 172.988281 83.210938 166.90625 68.6875 166.730469 L 68.597656 166.730469 C 54.125 166.574219 40.898438 172.332031 31.25 181.75 L 31.21875 181.75 C 21.578125 191.160156 15.503906 204.269531 15.324219 218.789062 L 15.324219 218.878906 C 15.164062 233.367188 20.921875 246.597656 30.332031 256.246094 L 30.347656 256.226562 C 39.777344 265.886719 52.882812 271.972656 67.382812 272.144531 L 67.414062 272.148438 L 67.476562 272.148438 C 81.960938 272.304688 95.195312 266.546875 104.839844 257.144531 L 104.828125 257.132812 C 114.480469 247.703125 120.570312 234.59375 120.746094 220.097656 L 120.746094 220.066406 L 120.75 220 C 120.761719 218.902344 120.738281 217.796875 120.6875 216.710938 C 120.527344 213.296875 116.058594 212.15625 113.332031 212.691406 C 93.628906 216.585938 77.699219 219.726562 71.675781 221.210938 C 55.910156 225.089844 70 215.9375 79.488281 212.1875 C 87.816406 208.902344 114.335938 195.472656 128.128906 188.335938 C 141.265625 181.285156 153.53125 174.335938 160.96875 169.660156 C 170.5625 163.628906 166.582031 160.453125 160.890625 153.410156 C 157.957031 149.773438 138.785156 130.289062 141.800781 126.964844 C 145.71875 122.652344 153.90625 121.777344 160.246094 120.015625 C 194.363281 110.558594 261.53125 97.378906 294.34375 89.191406 C 300.589844 87.632812 303.917969 88.972656 296.921875 92.824219 C 285.8125 98.941406 268.507812 106.242188 251.371094 113.492188 C 248.117188 114.863281 248.289062 117.226562 249.859375 119.535156 L 273.597656 154.585938 C 275.1875 156.929688 279.980469 157.203125 282.847656 156.109375 C 290.582031 153.144531 299.003906 151.546875 307.773438 151.644531 L 307.863281 151.644531 C 326.476562 151.878906 343.308594 159.695312 355.429688 172.109375 C 367.523438 184.5 374.917969 201.476562 374.714844 220.066406 L 374.710938 220.128906 L 374.710938 220.15625 C 374.476562 238.789062 366.675781 255.621094 354.277344 267.722656 L 354.253906 267.722656 C 341.859375 279.820312 324.882812 287.207031 306.296875 287.007812 L 306.203125 287.007812 C 287.59375 286.777344 270.761719 278.960938 258.652344 266.558594 L 258.640625 266.570312 C 246.539062 254.1875 239.152344 237.195312 239.355469 218.589844 L 239.355469 218.496094 C 239.507812 204.964844 243.71875 192.359375 250.761719 181.824219 C 256.332031 173.484375 268.621094 181.925781 263.195312 190.078125 C 257.734375 198.273438 254.445312 208.101562 254.320312 218.671875 L 254.320312 218.769531 C 254.160156 233.238281 259.921875 246.46875 269.34375 256.113281 L 269.34375 256.140625 C 278.753906 265.785156 291.855469 271.859375 306.378906 272.035156 L 306.40625 272.039062 L 306.46875 272.039062 C 320.953125 272.199219 334.1875 266.4375 343.832031 257.03125 L 343.820312 257.015625 C 353.480469 247.589844 359.5625 234.480469 359.742188 219.980469 L 359.742188 219.886719 C 359.902344 205.390625 354.140625 192.152344 344.722656 182.507812 C 335.3125 172.867188 322.203125 166.792969 307.683594 166.617188 L 307.59375 166.617188 C 302.058594 166.554688 296.695312 167.363281 291.652344 168.898438 C 288.238281 169.9375 286.730469 174.027344 288.308594 176.363281 L 313.875 214.152344 C 316.183594 217.5625 315.277344 222.199219 311.863281 224.496094 C 308.441406 226.792969 303.796875 225.890625 301.492188 222.480469 L 272.460938 179.574219 L 235.285156 124.621094 C 233.660156 122.210938 231.703125 121.910156 228.742188 123.226562 C 221.089844 126.628906 214.136719 129.90625 208.652344 132.886719 C 202.800781 136.066406 202.324219 136.515625 206.058594 141.101562 C 212.714844 149.285156 222.507812 160.050781 230.453125 170.019531 C 236.117188 177.109375 240.636719 178.695312 236.308594 184.011719 C 230.398438 188.722656 183.644531 198.640625 141.082031 207.179688 C 137.714844 207.847656 135.371094 211.640625 135.574219 214.972656 C 135.6875 216.683594 135.738281 218.433594 135.714844 220.175781 L 135.714844 220.273438 C 135.484375 238.902344 127.675781 255.734375 115.285156 267.839844 L 115.25 267.839844 C 102.867188 279.925781 85.886719 287.320312 67.296875 287.117188 L 67.203125 287.117188 C 48.574219 286.886719 31.742188 279.078125 19.640625 266.683594 L 19.640625 266.65625 C 7.550781 254.269531 0.15625 237.292969 0.359375 218.707031 L 0.359375 218.609375 C 0.585938 200.003906 8.398438 183.179688 20.8125 171.0625 L 20.792969 171.042969 C 33.175781 158.953125 50.167969 151.558594 68.777344 151.761719 L 68.867188 151.761719 C 87.480469 151.992188 104.316406 159.8125 116.433594 172.226562 C 125.210938 181.210938 111.230469 188.273438 105.726562 182.621094 " fill-opacity="1" fill-rule="evenodd"/></g></svg>